/* XPM */
static char * logo_xpm[] = {
"20 19 225 2",
"  	c None",
". 	c #000302",
"+ 	c #004520",
"@ 	c #005024",
"# 	c #003E1C",
"$ 	c #002B13",
"% 	c #00180A",
"& 	c #000A04",
"* 	c #000803",
"= 	c #000602",
"- 	c #000401",
"; 	c #000A05",
"> 	c #006932",
", 	c #007034",
"' 	c #007535",
") 	c #007A36",
"! 	c #007E36",
"~ 	c #008337",
"{ 	c #008737",
"] 	c #008B38",
"^ 	c #009039",
"/ 	c #00943A",
"( 	c #00983A",
"_ 	c #009C3B",
": 	c #006C28",
"< 	c #000100",
"[ 	c #112606",
"} 	c #59C921",
"| 	c #58C91F",
"1 	c #56C720",
"2 	c #54C522",
"3 	c #52C423",
"4 	c #49BD25",
"5 	c #37B22A",
"6 	c #27A72E",
"7 	c #169F34",
"8 	c #059839",
"9 	c #00963C",
"0 	c #009D3C",
"a 	c #00A13C",
"b 	c #009F3C",
"c 	c #00742D",
"d 	c #378A1A",
"e 	c #82D44F",
"f 	c #8EDA59",
"g 	c #8BD856",
"h 	c #86D752",
"i 	c #82D64E",
"j 	c #7FD54B",
"k 	c #76D343",
"l 	c #6DCF3B",
"m 	c #64CD34",
"n 	c #59CA2B",
"o 	c #4DC623",
"p 	c #41C02A",
"q 	c #019F3B",
"r 	c #009A3B",
"s 	c #009D3D",
"t 	c #2B7B1D",
"u 	c #8FD959",
"v 	c #76C23E",
"w 	c #72BF3A",
"x 	c #74C238",
"y 	c #7DC845",
"z 	c #86D04B",
"A 	c #85D04D",
"B 	c #8ED757",
"C 	c #94DC5D",
"D 	c #95DD5F",
"E 	c #4CC331",
"F 	c #35B92D",
"G 	c #00953A",
"H 	c #00973C",
"I 	c #000000",
"J 	c #1E6A1C",
"K 	c #71BD38",
"L 	c #66B32C",
"M 	c #719092",
"N 	c #ACB6CE",
"O 	c #3C5A8B",
"P 	c #83BE57",
"Q 	c #5FAC25",
"R 	c #5FAD24",
"S 	c #63B12A",
"T 	c #81CC4A",
"U 	c #7ED352",
"V 	c #2AB62F",
"W 	c #00913A",
"X 	c #00933B",
"Y 	c #145A1B",
"Z 	c #77C440",
"` 	c #5DAD23",
" .	c #82A192",
"..	c #8E9DBC",
"+.	c #314F89",
"@.	c #79BA46",
"#.	c #61AF27",
"$.	c #62B028",
"%.	c #7ED354",
"&.	c #1BAE33",
"*.	c #008D38",
"=.	c #008F3A",
"-.	c #0A4A19",
";.	c #8ED959",
">.	c #77C33F",
",.	c #699F56",
"'.	c #8B9BBC",
").	c #DCE1E9",
"!.	c #5F789C",
"~.	c #66B12D",
"{.	c #7DC946",
"].	c #7CD254",
"^.	c #0CA837",
"/.	c #008837",
"(.	c #008738",
"_.	c #033C16",
":.	c #73BF3A",
"<.	c #689A62",
"[.	c #8C9CB9",
"}.	c #FFFFFF",
"|.	c #6D9377",
"1.	c #92A6AF",
"2.	c #65B22B",
"3.	c #79D155",
"4.	c #00A03B",
"5.	c #008437",
"6.	c #007D35",
"7.	c #012E12",
"8.	c #7CC744",
"9.	c #5EAE23",
"0.	c #5C8771",
"a.	c #4B7D5E",
"b.	c #63AF29",
"c.	c #62B027",
"d.	c #2E5E63",
"e.	c #9BB5A7",
"f.	c #60AF24",
"g.	c #7BC643",
"h.	c #79D055",
"i.	c #00983B",
"j.	c #008037",
"k.	c #007333",
"l.	c #01210D",
"m.	c #98DD69",
"n.	c #89CE57",
"o.	c #6BB632",
"p.	c #57788A",
"q.	c #477E59",
"r.	c #66B32B",
"s.	c #62B124",
"t.	c #88C652",
"u.	c #13357E",
"v.	c #8DB683",
"w.	c #72BF38",
"x.	c #79CF55",
"y.	c #008F39",
"z.	c #007B36",
"A.	c #006B30",
"B.	c #001509",
"C.	c #9CDE6F",
"D.	c #95D766",
"E.	c #75BB40",
"F.	c #5B759E",
"G.	c #3B5C8D",
"H.	c #518073",
"I.	c #4B747C",
"J.	c #33528C",
"K.	c #345290",
"L.	c #83AE7D",
"M.	c #7BC743",
"N.	c #78CC54",
"O.	c #008537",
"P.	c #007734",
"Q.	c #00632C",
"R.	c #8AD36A",
"S.	c #A2E275",
"T.	c #82C551",
"U.	c #87A99D",
"V.	c #4F7390",
"W.	c #57759A",
"X.	c #638297",
"Y.	c #7DA586",
"Z.	c #8BC75C",
"`.	c #79BE49",
" +	c #91D264",
".+	c #85D168",
"++	c #007C35",
"@+	c #007334",
"#+	c #005A2A",
"$+	c #000201",
"%+	c #026F30",
"&+	c #94D872",
"*+	c #A1E178",
"=+	c #A4E379",
"-+	c #A6E578",
";+	c #A0E172",
">+	c #99DA6C",
",+	c #92D265",
"'+	c #89CA5C",
")+	c #83C455",
"!+	c #96D66B",
"~+	c #88D06D",
"{+	c #006F34",
"]+	c #002C15",
"^+	c #003318",
"/+	c #005829",
"(+	c #0E7737",
"_+	c #3D994B",
":+	c #6CBB61",
"<+	c #99DC76",
"[+	c #A4E27D",
"}+	c #A4E37D",
"|+	c #A5E37D",
"1+	c #A5E47D",
"2+	c #72BF66",
"3+	c #006C33",
"4+	c #003C1C",
"5+	c #000502",
"6+	c #000703",
"7+	c #02210F",
"8+	c #06421F",
"9+	c #0A622F",
"0+	c #0C783A",
"a+	c #017035",
"b+	c #00200F",
"                                        ",
"                                        ",
"        . + @ # $ % & * * = -           ",
"      ; > , ' ) ! ~ { ] ^ / ( _ : <     ",
"    [ } | 1 2 3 4 5 6 7 8 9 0 a b c     ",
"    d e f g h i j k l m n o p q r s <   ",
"    t u v w x y z A B C D f E F G H I   ",
"    J u K L M N O P Q R S T U V W X     ",
"    Y u Z `  ...+.@.#.$.#.y %.&.*.=.    ",
"    -.;.>.#.,.'.).!.~.#.#.{.].^./.(.    ",
"    _.;.:.#.<.[.}.|.1.2.#.y 3.4.5.6.    ",
"    7.;.8.9.0.a.b.c.d.e.f.g.h.i.j.k.    ",
"    l.m.n.o.p.q.r.s.t.u.v.w.x.y.z.A.    ",
"    B.C.D.E.F.G.H.I.J.K.L.M.N.O.P.Q.    ",
"    & R.S.T.U.V.W.X.Y.Z.`. +.+++@+#+    ",
"    $+%+&+*+=+-+;+>+,+'+)+!+~+k.{+]+    ",
"      I ^+/+(+_+:+<+[+}+|+1+2+3+4+      ",
"              - 5+6+7+8+9+0+a+b+        ",
"                            $+          "};
